<?xml version="1.0" encoding="utf-8"?>
<!-- Generator: Adobe Illustrator 23.0.2, SVG Export Plug-In . SVG Version: 6.00 Build 0)  -->
<svg version="1.1" id="Layer_1" xmlns="http://www.w3.org/2000/svg" xmlns:xlink="http://www.w3.org/1999/xlink" x="0px" y="0px"
	 viewBox="0 0 512 512" style="enable-background:new 0 0 512 512;" xml:space="preserve">
<g>
	<g>
		<path d="M501.3,192h-33.2c0.5-2.4,1.2-4.7,1.2-7.3c0-12.7-7.1-24.2-18.5-30L384,121.4V91.9l3.9-1.9c3.2,1.9,6.8,3,10.7,3
			c1.9,0,3.9-0.3,5.9-0.8l82.2-23.5C501.6,64.3,512,50.5,512,35c0-19.3-15.7-35-35-35h-9.8c-7.9,0-15.7,2.7-21.9,7.7l-59.8,47.9
			c-0.6,0.5-1,1.2-1.5,1.7v-3.9c0-5.9-4.8-10.7-10.7-10.7H10.7C4.8,42.7,0,47.4,0,53.3v149.3V352v149.3c0,5.9,4.8,10.7,10.7,10.7
			h362.7h128c5.9,0,10.7-4.8,10.7-10.7V352v0V202.7C512,196.8,507.2,192,501.3,192z M458.7,24.3c2.4-1.9,5.4-3,8.5-3h9.8
			c7.5,0,13.7,6.1,13.7,13.7c0,6.1-4.1,11.5-9.9,13.1L404.2,70c0,0,0-0.1,0-0.1c-0.2-0.5-0.7-0.8-1-1.2L458.7,24.3z M368.6,137.5
			c0,0,0.1,0,0.1,0l72.6,36.3c4.1,2.1,6.7,6.3,6.7,11c0,3.8-1.8,7.1-4.6,9.3c-0.1,0.1-0.2,0-0.3,0.1c-1.6,1.3-3,2-4.3,2.4
			l-292.4,73.1l50.1-60.1c0,0,0.1,0,0.1-0.1l75.2-90.3c2.4-2.9,5.4-5.2,8.5-7.2c0.2-0.1,0.5-0.3,0.7-0.4c6.4-3.6,13.9-5.2,21.2-4.5
			c0.4,0,0.9,0.1,1.3,0.1c3.6,0.5,7.2,1.4,10.5,3.1l31.4,15.7l-2.1,5.3l-103.6,62.2c-5,3-6.7,9.6-3.6,14.6c2,3.4,5.5,5.2,9.2,5.2
			c1.9,0,3.8-0.5,5.5-1.5l106.7-64c2-1.2,3.5-3,4.4-5.2l2.8-7L368.6,137.5z M149.3,232.9v-19.6h16.3L149.3,232.9z M21.3,64h341.3
			v19.3l-9.2,22.9l-29.8-14.9c-22.8-11.4-51.9-5.2-68.2,14.3L183.4,192h-44.8H21.3h0V64z M108.3,293.7c1.1,1.8,2.8,3,4.6,3.9
			c0.6,0.3,1.2,0.3,1.8,0.5c0.9,0.2,1.7,0.7,2.6,0.7c0.8,0,1.7-0.1,2.5-0.3c0,0,0.1,0,0.1,0l8.1-2v45H21.3v-128H128v45.2l-1.7,2
			l-17.2,20.6c-1.5,1.8-2.3,3.9-2.4,6.1S107.1,291.7,108.3,293.7z M362.7,490.7H21.3v-128h117.3h224L362.7,490.7L362.7,490.7z
			 M490.7,490.7H384v-128h106.7V490.7z M490.7,341.3H373.3h-224V291l294.6-73.7c2.2-0.5,4.2-1.7,6.3-2.8c0.9-0.4,2-0.7,2.9-1.3h37.5
			L490.7,341.3L490.7,341.3z"/>
	</g>
</g>
</svg>
