<svg xmlns="http://www.w3.org/2000/svg" width="289" height="139" viewBox="0 0 289 139"><g><g><path fill="#f8f8f8" d="M6 .093h54.993l8.38 8.398a1.291 1.291 0 0 0 1.831 0L79.583.093H283a6 6 0 0 1 6 6v126.438a6 6 0 0 1-6 6h-20.883l-14.85-14.884a2.223 2.223 0 0 0-3.15 0l-14.85 14.884H6a6 6 0 0 1-6-6V6.093a6 6 0 0 1 6-6z"/></g><g><path fill="#fff" d="M10.687 5.374h48.686l9.415 8.983a1.294 1.294 0 0 0 1.831 0l9.415-8.983h198.528a6 6 0 0 1 6 6v116.47a6 6 0 0 1-6 6h-14.741l-16.138-16.648a2.226 2.226 0 0 0-3.152-.001l-16.138 16.649H10.687a6 6 0 0 1-6-6V11.374a6 6 0 0 1 6-6z"/></g></g></svg>