<svg xmlns="http://www.w3.org/2000/svg" width="530" height="165" viewBox="0 0 530 165"><g><g><path fill="#c9ccdb" d="M45.133 11.811l67.88 5.237 3.167 3.174a1.293 1.293 0 0 0 1.831 0l2.583-2.589 405.312 31.272a3.515 3.515 0 0 1 3.51 3.519v89.489a3.514 3.514 0 0 1-3.51 3.518l-33.402 1.365-5.236-5.248a2.224 2.224 0 0 0-3.152 0l-5.59 5.82-433.393 17.711a3.515 3.515 0 0 1-3.51-3.519V15.33a3.515 3.515 0 0 1 3.51-3.519z"/><path fill="#dee0e4" d="M45.133 11.811l67.88 5.237 3.167 3.174a1.293 1.293 0 0 0 1.831 0l2.583-2.589 405.312 31.272a3.515 3.515 0 0 1 3.51 3.519v89.489a3.514 3.514 0 0 1-3.51 3.518l-33.402 1.365-5.236-5.248a2.224 2.224 0 0 0-3.152 0l-5.59 5.82-433.393 17.711a3.515 3.515 0 0 1-3.51-3.519V15.33a3.515 3.515 0 0 1 3.51-3.519z"/></g><g><path fill="#f8f8f8" d="M6 .093h54.993l8.38 8.4a1.292 1.292 0 0 0 1.831 0l8.38-8.4H524a6 6 0 0 1 6 6v131.438a6 6 0 0 1-6 6h-21.883l-14.85-14.884a2.224 2.224 0 0 0-3.15 0l-14.85 14.884H6a6 6 0 0 1-6-6V6.093a6 6 0 0 1 6-6z"/></g><g><path fill="#fff" d="M10.687 5.375h48.686l9.415 8.983a1.293 1.293 0 0 0 1.831 0l9.415-8.983h437.528a6 6 0 0 1 6 6v121.468a6 6 0 0 1-6 6h-14.741l-16.138-16.647a2.226 2.226 0 0 0-3.152-.001l-16.138 16.649H10.687a6 6 0 0 1-6-6V11.373a6 6 0 0 1 6-6z"/></g></g></svg>