<?xml version="1.0" encoding="utf-8"?>
<!-- Generator: Adobe Illustrator 23.0.3, SVG Export Plug-In . SVG Version: 6.00 Build 0)  -->
<svg version="1.1" id="Слой_1" xmlns="http://www.w3.org/2000/svg" xmlns:xlink="http://www.w3.org/1999/xlink" x="0px" y="0px"
	 viewBox="0 0 782.8 501.3" style="enable-background:new 0 0 782.8 501.3;" xml:space="preserve">
<style type="text/css">
	.st0{fill:url(#SVGID_1_);}
	.st1{fill:url(#SVGID_2_);}
	.st2{fill:url(#SVGID_3_);}
	.st3{fill:url(#SVGID_4_);}
	.st4{fill:url(#SVGID_5_);}
	.st5{fill:url(#SVGID_6_);}
	.st6{fill:url(#SVGID_7_);}
	.st7{fill:url(#SVGID_8_);}
	.st8{fill:url(#SVGID_9_);}
	.st9{fill:url(#SVGID_10_);}
</style>
<g id="Layer_1">
	<g>
		<g>
			
				<linearGradient id="SVGID_1_" gradientUnits="userSpaceOnUse" x1="165.4035" y1="344.0104" x2="165.4035" y2="397.3238" gradientTransform="matrix(1 0 0 -1 0 504)">
				<stop  offset="0" style="stop-color:#1B8ACA"/>
				<stop  offset="0.4976" style="stop-color:#27A9E5"/>
				<stop  offset="1" style="stop-color:#31C5FC"/>
			</linearGradient>
			<path class="st0" d="M197.5,140.2l-53.3-32c-5-3-11.6-1.4-14.6,3.6c-3,5.1-1.4,11.6,3.7,14.6l53.3,32c1.7,1,3.6,1.5,5.5,1.5
				c3.6,0,7.1-1.8,9.2-5.2C204.2,149.8,202.5,143.2,197.5,140.2z"/>
		</g>
	</g>
	<g>
		<g>
			
				<linearGradient id="SVGID_2_" gradientUnits="userSpaceOnUse" x1="229.4035" y1="365.3434" x2="229.4035" y2="418.6661" gradientTransform="matrix(1 0 0 -1 0 504)">
				<stop  offset="0" style="stop-color:#1B8ACA"/>
				<stop  offset="0.4976" style="stop-color:#27A9E5"/>
				<stop  offset="1" style="stop-color:#31C5FC"/>
			</linearGradient>
			<path class="st1" d="M261.5,118.9l-53.3-32c-5-3-11.6-1.4-14.6,3.6c-3,5.1-1.4,11.6,3.7,14.6l53.3,32c1.7,1,3.6,1.5,5.5,1.5
				c3.6,0,7.1-1.8,9.2-5.2C268.2,128.4,266.5,121.9,261.5,118.9z"/>
		</g>
	</g>
	<g>
		<g>
			
				<linearGradient id="SVGID_3_" gradientUnits="userSpaceOnUse" x1="293.4035" y1="386.6764" x2="293.4035" y2="439.9991" gradientTransform="matrix(1 0 0 -1 0 504)">
				<stop  offset="0" style="stop-color:#1B8ACA"/>
				<stop  offset="0.4976" style="stop-color:#27A9E5"/>
				<stop  offset="1" style="stop-color:#31C5FC"/>
			</linearGradient>
			<path class="st2" d="M325.5,97.5l-53.3-32c-5-3-11.6-1.4-14.6,3.6c-3,5.1-1.4,11.6,3.7,14.6l53.3,32c1.7,1,3.6,1.5,5.5,1.5
				c3.6,0,7.1-1.8,9.2-5.2C332.2,107.1,330.5,100.6,325.5,97.5z"/>
		</g>
	</g>
	<g>
		<g>
			
				<linearGradient id="SVGID_4_" gradientUnits="userSpaceOnUse" x1="357.4035" y1="408.0104" x2="357.4035" y2="461.3238" gradientTransform="matrix(1 0 0 -1 0 504)">
				<stop  offset="0" style="stop-color:#1B8ACA"/>
				<stop  offset="0.4976" style="stop-color:#27A9E5"/>
				<stop  offset="1" style="stop-color:#31C5FC"/>
			</linearGradient>
			<path class="st3" d="M389.5,76.2l-53.3-32c-5-3-11.6-1.4-14.6,3.6c-3,5.1-1.4,11.6,3.7,14.6l53.3,32c1.7,1,3.6,1.5,5.5,1.5
				c3.6,0,7.1-1.8,9.2-5.2C396.2,85.8,394.5,79.2,389.5,76.2z"/>
		</g>
	</g>
	<g>
		<g>
			
				<linearGradient id="SVGID_5_" gradientUnits="userSpaceOnUse" x1="256" y1="228.4113" x2="256" y2="262.8579" gradientTransform="matrix(1 0 0 -1 0 504)">
				<stop  offset="0" style="stop-color:#1B8ACA"/>
				<stop  offset="0.4976" style="stop-color:#27A9E5"/>
				<stop  offset="1" style="stop-color:#31C5FC"/>
			</linearGradient>
			<path class="st4" d="M287.5,322.3l-116.8,36.5V210.5l320-100v63.2c5.5-1.9,11.2-3.4,16.9-4.4c1.7-0.3,3.3,0.3,4.4,1.3V96
				c0-0.4-0.2-0.7-0.3-1c-0.1-1-0.3-2-0.7-2.9c-0.2-0.5-0.4-1-0.7-1.5c-0.5-0.9-1.2-1.6-1.9-2.2c-0.3-0.3-0.4-0.7-0.8-0.9
				c-0.1-0.1-0.4-0.1-0.5-0.2c-0.2-0.1-0.3-0.3-0.5-0.4L357.3,1.4c-2.6-1.5-5.7-1.8-8.5-0.9L7.5,107.2c-0.5,0.1-0.8,0.5-1.3,0.7
				c-0.3,0.1-0.6,0.1-0.9,0.2c-0.2,0.1-0.3,0.4-0.5,0.5c-1.2,0.8-2.2,1.8-3,3c-0.1,0.2-0.3,0.3-0.4,0.6c-0.8,1.5-1.2,3.1-1.3,4.8
				c0,0.1-0.1,0.2-0.1,0.4V288c0,3.8,2,7.4,5.4,9.3l149.3,85.3c1.6,0.9,3.5,1.4,5.3,1.4c1,0,2.1-0.1,3.2-0.5l125.7-39.3
				c-0.5-3.3-0.2-6.8-0.4-10C288.4,330.2,287.7,326.3,287.5,322.3z M149.3,354.9l-128-73.1V135.7l128,73.1V354.9z M161.3,191.1
				L37.2,120.2l313.5-98l124.1,70.9L161.3,191.1z"/>
		</g>
	</g>
	<g>
		<g>
			
				<linearGradient id="SVGID_6_" gradientUnits="userSpaceOnUse" x1="436.2145" y1="226.6868" x2="436.2145" y2="280.0002" gradientTransform="matrix(1 0 0 -1 0 504)">
				<stop  offset="0" style="stop-color:#1B8ACA"/>
				<stop  offset="0.4976" style="stop-color:#27A9E5"/>
				<stop  offset="1" style="stop-color:#31C5FC"/>
			</linearGradient>
			<path class="st5" d="M468.3,257.5l-53.3-32c-5-3-11.6-1.4-14.6,3.6c-3,5.1-1.4,11.6,3.7,14.6l53.3,32c1.7,1,3.6,1.5,5.5,1.5
				c3.6,0,7.1-1.8,9.2-5.2C475,267.1,473.4,260.5,468.3,257.5z"/>
		</g>
	</g>
	<g>
		<g>
			
				<linearGradient id="SVGID_7_" gradientUnits="userSpaceOnUse" x1="500.2146" y1="248.0198" x2="500.2146" y2="301.3425" gradientTransform="matrix(1 0 0 -1 0 504)">
				<stop  offset="0" style="stop-color:#1B8ACA"/>
				<stop  offset="0.4976" style="stop-color:#27A9E5"/>
				<stop  offset="1" style="stop-color:#31C5FC"/>
			</linearGradient>
			<path class="st6" d="M532.3,236.2l-53.3-32c-5-3-11.6-1.4-14.6,3.6c-3,5.1-1.4,11.6,3.7,14.6l53.3,32c1.7,1,3.6,1.5,5.5,1.5
				c3.6,0,7.1-1.8,9.2-5.2C539,245.8,537.4,239.2,532.3,236.2z"/>
		</g>
	</g>
	<g>
		<g>
			
				<linearGradient id="SVGID_8_" gradientUnits="userSpaceOnUse" x1="564.2146" y1="269.3528" x2="564.2146" y2="322.6755" gradientTransform="matrix(1 0 0 -1 0 504)">
				<stop  offset="0" style="stop-color:#1B8ACA"/>
				<stop  offset="0.4976" style="stop-color:#27A9E5"/>
				<stop  offset="1" style="stop-color:#31C5FC"/>
			</linearGradient>
			<path class="st7" d="M596.3,214.8l-53.3-32c-5-3-11.6-1.4-14.6,3.6c-3,5.1-1.4,11.6,3.7,14.6l53.3,32c1.7,1,3.6,1.5,5.5,1.5
				c3.6,0,7.1-1.8,9.2-5.2C603,224.4,601.4,217.9,596.3,214.8z"/>
		</g>
	</g>
	<g>
		<g>
			
				<linearGradient id="SVGID_9_" gradientUnits="userSpaceOnUse" x1="628.2146" y1="290.6868" x2="628.2146" y2="344.0002" gradientTransform="matrix(1 0 0 -1 0 504)">
				<stop  offset="0" style="stop-color:#1B8ACA"/>
				<stop  offset="0.4976" style="stop-color:#27A9E5"/>
				<stop  offset="1" style="stop-color:#31C5FC"/>
			</linearGradient>
			<path class="st8" d="M660.3,193.5l-53.3-32c-5-3-11.6-1.4-14.6,3.6c-3,5.1-1.4,11.6,3.7,14.6l53.3,32c1.7,1,3.6,1.5,5.5,1.5
				c3.6,0,7.1-1.8,9.2-5.2C667,203.1,665.4,196.5,660.3,193.5z"/>
		</g>
	</g>
	<g>
		<g>
			
				<linearGradient id="SVGID_10_" gradientUnits="userSpaceOnUse" x1="526.8" y1="111.0876" x2="526.8" y2="145.5343" gradientTransform="matrix(1 0 0 -1 0 504)">
				<stop  offset="0" style="stop-color:#1B8ACA"/>
				<stop  offset="0.4976" style="stop-color:#27A9E5"/>
				<stop  offset="1" style="stop-color:#31C5FC"/>
			</linearGradient>
			<path class="st9" d="M782.6,212.3c-0.1-1-0.3-2-0.7-2.9c-0.2-0.5-0.4-1-0.7-1.5c-0.5-0.9-1.2-1.6-1.9-2.2
				c-0.3-0.3-0.4-0.7-0.8-0.9c-0.1-0.1-0.4-0.1-0.5-0.2c-0.2-0.1-0.3-0.3-0.5-0.4l-149.3-85.3c-2.6-1.5-5.7-1.8-8.5-0.9L278.3,224.5
				c-0.5,0.1-0.8,0.5-1.3,0.7c-0.3,0.1-0.6,0.1-0.9,0.2c-0.2,0.1-0.3,0.4-0.5,0.5c-1.2,0.8-2.2,1.8-3,3c-0.1,0.2-0.3,0.3-0.4,0.6
				c-0.8,1.5-1.2,3.1-1.3,4.8c0,0.1-0.1,0.2-0.1,0.4v170.7c0,3.8,2,7.4,5.4,9.3L425.5,500c1.6,0.9,3.5,1.4,5.3,1.4
				c1,0,2.1-0.1,3.2-0.5l341.3-106.7c4.5-1.4,7.5-5.5,7.5-10.2V213.3C782.8,213,782.6,212.7,782.6,212.3z M420.2,472.3l-128-73.1
				V253l128,73.1V472.3z M432.1,308.4L308,237.5l313.5-98l124.1,70.9L432.1,308.4z M761.5,376.1l-320,100V327.8l320-100V376.1z"/>
		</g>
	</g>
</g>
</svg>
