<?xml version="1.0" encoding="utf-8"?>
<!-- Generator: Adobe Illustrator 23.0.2, SVG Export Plug-In . SVG Version: 6.00 Build 0)  -->
<svg version="1.1" id="Слой_1" xmlns="http://www.w3.org/2000/svg" xmlns:xlink="http://www.w3.org/1999/xlink" x="0px" y="0px"
	 viewBox="0 0 511 511" style="enable-background:new 0 0 511 511;" xml:space="preserve">
<path d="M8.5,512h408.8c4.7,0,8.5-3.8,8.5-8.5v-76.7h59.6c4.7,0,8.5-3.8,8.5-8.5v-85.2c0-4.7-3.8-8.5-8.5-8.5h-59.6V248
	c0-4.7-3.8-8.5-8.5-8.5h-15.6c1.2-5.6-0.1-11.4-3.5-15.9l-38.5-51.3l17.8-13.3c7.9-5.9,12.3-15.4,11.7-25.2l-0.9-15.3
	c-0.2-4.2,1.6-8.2,5-10.7l17.8-13.3l7.5,10c1.4,1.8,3.4,3,5.6,3.3c0.4,0.1,0.8,0.1,1.2,0.1c1.8,0,3.6-0.6,5.1-1.7l70.3-52.7
	c11.3-8.5,13.6-24.5,5.1-35.8l-4.7-6.3c-8.5-11.3-24.5-13.6-35.8-5.1l-70.3,52.7c-3.8,2.8-4.5,8.2-1.7,11.9l7.5,10L383.1,94
	c-7.9,5.9-12.3,15.4-11.7,25.2l0.8,15.3c0.2,4.2-1.6,8.2-5,10.7l-17.8,13.3L311,107.3c-4-5.5-10.6-8.5-17.3-8
	c-6.5,0.5-12.2,4.2-15.3,9.9l-70,130.2H8.5c-4.7,0-8.5,3.8-8.5,8.5v85.2c0,4.7,3.8,8.5,8.5,8.5h59.6v68.1H8.5
	c-4.7,0-8.5,3.8-8.5,8.5v85.2C0,508.2,3.8,512,8.5,512z M475.6,19.7c3.8-2.8,9.1-2.1,11.9,1.7l4.7,6.3c2.8,3.8,2.1,9.1-1.7,11.9
	l-63.5,47.6l-15-19.9L475.6,19.7z M153.3,426.8h119.2V495H153.3V426.8z M221.4,341.7h119.2v68.1H221.4V341.7z M408.8,495H289.6
	v-68.1h119.2V495z M476.9,409.8H357.7v-68.1h119.2V409.8z M408.8,324.6H289.6V275l87.2-18.5h32.1V324.6z M293.4,117.3
	c0.3-0.6,0.9-1,1.6-1l0.2,0c0.9,0,1.7,0.5,2.3,1.2l38.5,51.3l-35.1,26.4c-3.8,2.8-4.5,8.2-1.7,11.9c2.8,3.8,8.2,4.5,11.9,1.7
	l35.1-26.4l38.5,51.3c0.6,0.7,0.8,1.8,0.5,2.7c-0.2,0.6-0.7,1.1-1.4,1.2l-169,35.9c-1,0.2-2.1-0.3-2.7-1.2c-0.7-0.8-0.8-2-0.4-2.9
	L293.4,117.3z M198.4,282.6c4.5,6.2,12.3,9.2,19.9,7.6l54.3-11.5v46H153.3v-68.1h46l-2.6,4.9C193,268.2,193.7,276.5,198.4,282.6z
	 M17,290.6h17c4.7,0,8.5-3.8,8.5-8.5c0-4.7-3.8-8.5-8.5-8.5H17v-17h119.2v68.1H17V290.6z M85.2,341.7h119.2v68.1H85.2V341.7z
	 M17,426.8h119.2V495H17V426.8z"/>
<path d="M110.7,282c0-4.7-3.8-8.5-8.5-8.5H68.1c-4.7,0-8.5,3.8-8.5,8.5c0,4.7,3.8,8.5,8.5,8.5h34.1
	C106.9,290.6,110.7,286.7,110.7,282z"/>
</svg>
