<?xml version="1.0" encoding="utf-8"?>
<!-- Generator: Adobe Illustrator 23.0.2, SVG Export Plug-In . SVG Version: 6.00 Build 0)  -->
<svg version="1.1" id="Layer_1" xmlns="http://www.w3.org/2000/svg" xmlns:xlink="http://www.w3.org/1999/xlink" x="0px" y="0px"
	 viewBox="0 0 512 512" style="enable-background:new 0 0 512 512;" xml:space="preserve">
<g>
	<g>
		<path d="M499.5,284.2H391l76.7-76.7c4-4,4-10.6,0-14.6L321.2,46.5c-1.9-1.9-4.6-3-7.3-3s-5.4,1.1-7.3,3L230,123.2V10.3
			C230,4.6,225.3,0,219.6,0H12.5C6.8,0,2.2,4.6,2.2,10.3v394.4C2.2,463.9,50.3,512,109.5,512h2.2h11h376.8c5.7,0,10.3-4.6,10.3-10.3
			V294.6C509.8,288.9,505.2,284.2,499.5,284.2z M230,155.9L360.1,286L289,357.1l-59-59L230,155.9L230,155.9z M230,404.7v-77.4
			l44.4,44.4l-45.1,45.1C229.7,412.8,230,408.8,230,404.7z M22.8,20.6h186.5v93.9H22.8V20.6z M22.8,135.2h186.5v100.6h0H22.8V135.2z
			 M22.8,256.4h186.5V357H22.8V256.4z M122.7,491.4h-13.2v0c-47.8,0-86.7-38.9-86.7-86.7v-27.1h186.5v27.1
			C209.3,452.5,170.4,491.4,122.7,491.4z M246.8,491.4h-61c11-8,20.3-18,27.6-29.5l33.4-33.4V491.4z M368,491.4H267.4v-83.5
			L368,307.3L368,491.4L368,491.4z M242.8,139.6L314,68.4l131.9,131.9l-71.2,71.2L242.8,139.6z M489.2,491.4H388.6V304.9h100.6
			L489.2,491.4L489.2,491.4z"/>
	</g>
</g>
<g>
	<g>
		<path d="M116.1,394.4c-14.2,0-25.7,11.5-25.7,25.7c0,14.2,11.5,25.7,25.7,25.7c14.2,0,25.7-11.5,25.7-25.7
			C141.8,406,130.3,394.4,116.1,394.4z M116.1,425.3c-2.8,0-5.1-2.3-5.1-5.1c0-2.8,2.3-5.1,5.1-5.1s5.1,2.3,5.1,5.1
			C121.2,423,118.9,425.3,116.1,425.3z"/>
	</g>
</g>
</svg>
