<?xml version="1.0" encoding="utf-8"?>
<!-- Generator: Adobe Illustrator 23.0.2, SVG Export Plug-In . SVG Version: 6.00 Build 0)  -->
<svg version="1.1" id="Capa_1" xmlns="http://www.w3.org/2000/svg" xmlns:xlink="http://www.w3.org/1999/xlink" x="0px" y="0px"
	 viewBox="0 0 352.5 352.5" style="enable-background:new 0 0 352.5 352.5;" xml:space="preserve">
<g>
	<g>
		<path d="M352.4,116.1c-1.4-36-31.1-64.9-67.5-64.9H67.6C30.3,51.2,0,81.6,0,118.9V166v67.6c0,37.3,30.3,67.6,67.6,67.6h217.3
			c37.3,0,67.6-30.3,67.6-67.6V166v-47.1c0-0.6-0.1-1.1-0.1-1.6c0-0.1,0.1-0.3,0.1-0.4C352.5,116.6,352.4,116.4,352.4,116.1z
			 M12.3,123h327.9v36.9H12.3V123z M67.6,63.5h217.3c27.7,0,50.7,20.5,54.7,47.1H13C17,84.1,39.9,63.5,67.6,63.5z M340.2,233.7
			c0,30.5-24.8,55.3-55.3,55.3H67.6c-30.5,0-55.3-24.8-55.3-55.3v-61.5h327.9V233.7z"/>
		<path d="M32.8,251.6H207c3.4,0,6.1-2.8,6.1-6.1v-25.9c0-3.4-2.8-6.1-6.1-6.1H32.8c-3.4,0-6.1,2.8-6.1,6.1v25.9
			C26.6,248.8,29.4,251.6,32.8,251.6z M38.9,225.7h161.9v13.6H38.9V225.7z"/>
		<path d="M256.2,266.1h57.4c3.4,0,6.1-2.8,6.1-6.1V205c0-3.4-2.8-6.1-6.1-6.1h-57.4c-3.4,0-6.1,2.8-6.1,6.1v54.9
			C250.1,263.3,252.8,266.1,256.2,266.1z M262.3,211.2h45.1v42.6h-45.1V211.2z"/>
	</g>
</g>
</svg>
