<?xml version="1.0" encoding="utf-8"?>
<!-- Generator: Adobe Illustrator 23.0.3, SVG Export Plug-In . SVG Version: 6.00 Build 0)  -->
<svg version="1.1" id="Capa_1" xmlns="http://www.w3.org/2000/svg" xmlns:xlink="http://www.w3.org/1999/xlink" x="0px" y="0px"
	 viewBox="0 0 1350 512" style="enable-background:new 0 0 1350 512;" xml:space="preserve">
<style type="text/css">
	.st0{fill:#2B2B2B;}
	.st1{fill:#6D6D6D;}
	.st2{fill:#AAAAAA;}
</style>
<path class="st0" d="M288.1,128.5h-80.3c-8.3,0-15,6.7-15,15v113.5h-17.1c-8.3,0-15,6.7-15,15s6.7,15,15,15h17.1v34.3h-17.1
	c-8.3,0-15,6.7-15,15s6.7,15,15,15h17.1v33.2c0,8.3,6.7,15,15,15s15-6.7,15-15v-33.2h65.3c8.3,0,15-6.7,15-15s-6.7-15-15-15h-65.3
	v-34.3h65.3c43.7,0,79.3-35.6,79.3-79.3C367.4,163,330.9,128.5,288.1,128.5L288.1,128.5z M288.1,257.1h-65.3v-98.5h65.3
	c27,0,49.3,21.8,49.3,49.3C337.4,235,315.3,257.1,288.1,257.1z"/>
<path d="M456.2,147.5c-0.4,0.6-0.7,1.2-1.1,1.8c0.6,1.2,1.2,2.3,1.8,3.5c0.8-1.8,1.7-3.6,2.7-5.4
	C458.6,147.7,457.3,147.8,456.2,147.5z"/>
<path class="st0" d="M453.5,379.3c-1.4-2.2-2.7-4.6-3.8-7.1C410.1,437.9,338.1,482,256,482C131.4,482,30,380.6,30,256
	S131.4,30,256,30c82.1,0,154.1,44,193.6,109.6c1.7-2.5,3.5-5.1,5.2-7.6c2.3-7.9,6.6-15.3,11.4-21.9C419.9,43.6,343,0,256,0
	C114.8,0,0,114.8,0,256s114.8,256,256,256c87.8,0,165.3-44.4,211.4-111.9C461.4,394.8,457,387.3,453.5,379.3z"/>
<path d="M471,147.6c-0.6,1.4-1.1,2.9-1.7,4.4c0.5-0.9,1-1.7,1.5-2.6c0.5-1.4,1.1-2.7,1.6-4.1C471.9,146.1,471.5,146.9,471,147.6z"/>
<path class="st1" d="M707.2,128.5h-80.3c-8.3,0-15,6.7-15,15v113.5h-17.1c-8.3,0-15,6.7-15,15s6.7,15,15,15h17.1v34.3h-17.1
	c-8.3,0-15,6.7-15,15s6.7,15,15,15h17.1v33.2c0,8.3,6.7,15,15,15s15-6.7,15-15v-33.2h65.3c8.3,0,15-6.7,15-15s-6.7-15-15-15h-65.3
	v-34.3h65.3c43.7,0,79.3-35.6,79.3-79.3C786.5,163,750,128.5,707.2,128.5L707.2,128.5z M707.2,257.1h-65.3v-98.5h65.3
	c27,0,49.3,21.8,49.3,49.3C756.5,235,734.4,257.1,707.2,257.1z"/>
<path d="M889.8,361.2c-2.4-5.7-4.6-11.4-6.6-17.2c-0.3,0.6-0.6,1.3-0.8,1.9c2.6,5.4,5.1,10.8,7.4,16.2
	C889.8,361.8,889.8,361.5,889.8,361.2z"/>
<path d="M884.1,374.7c-2.1-5.8-4.6-11.5-7.2-17.1c-0.2,0.3-0.3,0.6-0.4,0.9c2.5,6.5,5.4,12.8,8.6,19
	C884.7,376.5,884.4,375.6,884.1,374.7z"/>
<path class="st1" d="M880.7,390.8c-0.4-0.6-0.6-1.3-0.7-2c-0.3-0.3-0.6-0.7-0.9-1.2c-3.2-5.9-6.2-11.9-8.8-18
	C831.1,436.8,758.3,482,675.1,482c-124.6,0-226-101.4-226-226s101.4-226,226-226c81.6,0,153.3,43.5,193,108.6
	c4.9-9.8,12.1-18.7,17.1-28.6C839,43.6,762,0,675.1,0c-141.2,0-256,114.8-256,256s114.8,256,256,256c87.9,0,165.5-44.5,211.6-112.2
	C884.5,397,882.8,393.8,880.7,390.8z"/>
<path class="st2" d="M1126.2,128.5h-80.3c-8.3,0-15,6.7-15,15v113.5h-17.1c-8.3,0-15,6.7-15,15s6.7,15,15,15h17.1v34.3h-17.1
	c-8.3,0-15,6.7-15,15s6.7,15,15,15h17.1v33.2c0,8.3,6.7,15,15,15c8.3,0,15-6.7,15-15v-33.2h65.3c8.3,0,15-6.7,15-15s-6.7-15-15-15
	h-65.3v-34.3h65.3c43.7,0,79.3-35.6,79.3-79.3C1205.4,163,1169,128.5,1126.2,128.5L1126.2,128.5z M1126.2,257.1h-65.3v-98.5h65.3
	c27,0,49.3,21.8,49.3,49.3C1175.4,235,1153.3,257.1,1126.2,257.1z"/>
<path class="st2" d="M1094,0C952.9,0,838,114.8,838,256s114.8,256,256,256s256-114.8,256-256S1235.2,0,1094,0z M1094,482
	c-124.6,0-226-101.4-226-226S969.4,30,1094,30s226,101.4,226,226S1218.7,482,1094,482z"/>
</svg>
