<?xml version="1.0" encoding="utf-8"?>
<!-- Generator: Adobe Illustrator 23.0.2, SVG Export Plug-In . SVG Version: 6.00 Build 0)  -->
<svg version="1.1" id="Capa_1" xmlns="http://www.w3.org/2000/svg" xmlns:xlink="http://www.w3.org/1999/xlink" x="0px" y="0px"
	 viewBox="0 0 512 512" style="enable-background:new 0 0 512 512;" xml:space="preserve">
<style type="text/css">
	.st0{fill:#80C7EA;}
</style>
<path class="st0" d="M512,256c0-7.4-6-13.4-13.4-13.4h-21.1l20.1-20.1c5.2-5.2,5.2-13.7,0-19s-13.7-5.2-19,0l-39.1,39.1h-19.9
	l20.1-20.1c5.2-5.2,5.2-13.7,0-19c-5.2-5.2-13.7-5.2-19,0l-39.1,39.1h-93.2l65.9-65.9h55.3c7.4,0,13.4-6,13.4-13.4
	s-6-13.4-13.4-13.4h-28.4l14.1-14.1h55.3c7.4,0,13.4-6,13.4-13.4s-6-13.4-13.4-13.4h-28.4L437,94c5.2-5.2,5.2-13.7,0-19
	c-5.2-5.2-13.7-5.2-19,0l-14.9,14.9V61.5c0-7.4-6-13.4-13.4-13.4s-13.4,6-13.4,13.4v55.3l-14.1,14.1v-28.4c0-7.4-6-13.4-13.4-13.4
	c-7.4,0-13.4,6-13.4,13.4v55.3l-65.9,65.9v-93.2l39.1-39.1c5.2-5.2,5.2-13.7,0-19c-5.2-5.2-13.7-5.2-19,0l-20.1,20.1V72.5l39.1-39.1
	c5.2-5.2,5.2-13.7,0-19c-5.2-5.2-13.7-5.2-19,0l-20.1,20.1V13.4C269.4,6,263.4,0,256,0c-7.4,0-13.4,6-13.4,13.4v21.1l-20.1-20.1
	c-5.2-5.2-13.7-5.2-19,0s-5.2,13.7,0,19l39.1,39.1v19.9l-20.1-20.1c-5.2-5.2-13.7-5.2-19,0s-5.2,13.7,0,19l39.1,39.1v93.2
	l-65.9-65.9v-55.3c0-7.4-6-13.4-13.4-13.4s-13.4,6-13.4,13.4v28.4l-14.1-14.1V61.5c0-7.4-6-13.4-13.4-13.4s-13.4,6-13.4,13.4v28.4
	L94,75c-5.2-5.2-13.7-5.2-19,0c-5.2,5.2-5.2,13.7,0,19l14.9,14.9H61.5c-7.4,0-13.4,6-13.4,13.4s6,13.4,13.4,13.4h55.3l14.1,14.1
	h-28.4c-7.4,0-13.4,6-13.4,13.4s6,13.4,13.4,13.4h55.3l65.9,65.9h-93.2l-39.1-39.1c-5.2-5.2-13.7-5.2-19,0c-5.2,5.2-5.2,13.7,0,19
	l20.1,20.1H72.5l-39.1-39.1c-5.2-5.2-13.7-5.2-19,0s-5.2,13.7,0,19l20.1,20.1H13.4C6,242.6,0,248.6,0,256c0,7.4,6,13.4,13.4,13.4
	h21.1l-20.1,20.1c-5.2,5.2-5.2,13.7,0,19c2.6,2.6,6.1,3.9,9.5,3.9s6.9-1.3,9.5-3.9l39.1-39.1h19.9l-20.1,20.1
	c-5.2,5.2-5.2,13.7,0,19c2.6,2.6,6.1,3.9,9.5,3.9s6.9-1.3,9.5-3.9l39.1-39.1h93.2l-65.9,65.9h-55.3c-7.4,0-13.4,6-13.4,13.4
	c0,7.4,6,13.4,13.4,13.4h28.4l-14.1,14.1H61.5c-7.4,0-13.4,6-13.4,13.4s6,13.4,13.4,13.4h28.4L75,418c-5.2,5.2-5.2,13.7,0,19
	c2.6,2.6,6.1,3.9,9.5,3.9s6.9-1.3,9.5-3.9l14.9-14.9v28.4c0,7.4,6,13.4,13.4,13.4c7.4,0,13.4-6,13.4-13.4v-55.3l14.1-14.1v28.4
	c0,7.4,6,13.4,13.4,13.4s13.4-6,13.4-13.4v-55.3l65.9-65.9v93.2l-39.1,39.1c-5.2,5.2-5.2,13.7,0,19c5.2,5.2,13.7,5.2,19,0l20.1-20.1
	v19.9l-39.1,39.1c-5.2,5.2-5.2,13.7,0,19c2.6,2.6,6.1,3.9,9.5,3.9c3.4,0,6.9-1.3,9.5-3.9l20.1-20.1v21.1c0,7.4,6,13.4,13.4,13.4
	c7.4,0,13.4-6,13.4-13.4v-21.1l20.1,20.1c5.2,5.2,13.7,5.2,19,0s5.2-13.7,0-19l-39.1-39.1v-19.9l20.1,20.1c2.6,2.6,6.1,3.9,9.5,3.9
	s6.9-1.3,9.5-3.9c5.2-5.2,5.2-13.7,0-19l-39.1-39.1v-93.2l65.9,65.9v55.3c0,7.4,6,13.4,13.4,13.4c7.4,0,13.4-6,13.4-13.4v-28.4
	l14.1,14.1v55.3c0,7.4,6,13.4,13.4,13.4s13.4-6,13.4-13.4v-28.4L418,437c2.6,2.6,6.1,3.9,9.5,3.9c3.4,0,6.9-1.3,9.5-3.9
	c5.2-5.2,5.2-13.7,0-19l-14.9-14.9h28.4c7.4,0,13.4-6,13.4-13.4c0-7.4-6-13.4-13.4-13.4h-55.3l-14.1-14.1h28.4
	c7.4,0,13.4-6,13.4-13.4c0-7.4-6-13.4-13.4-13.4h-55.3l-65.9-65.9h93.2l39.1,39.1c2.6,2.6,6.1,3.9,9.5,3.9s6.9-1.3,9.5-3.9
	c5.2-5.2,5.2-13.7,0-19l-20.1-20.1h19.9l39.1,39.1c2.6,2.6,6.1,3.9,9.5,3.9c3.4,0,6.9-1.3,9.5-3.9c5.2-5.2,5.2-13.7,0-19l-20.1-20.1
	h21.1C506,269.4,512,263.4,512,256z"/>
</svg>
