<svg xmlns="http://www.w3.org/2000/svg" viewBox="0 0 475.08 453.1"><title>star</title><g id="Слой_2" data-name="Слой 2"><g id="Capa_1" data-name="Capa 1"><path d="M475.08,175.58q0-10.56-16-13.13L315.77,141.61,251.53,11.7Q246.11,0,237.54,0t-14,11.7L159.31,141.61,16,162.45Q0,165,0,175.58q0,6,7.14,13.71L111.06,290.36,86.51,433.11a46.39,46.39,0,0,0-.57,5.71,16.79,16.79,0,0,0,3,10.13q3,4.16,9,4.15,5.14,0,11.42-3.43l128.19-67.38,128.19,67.38a23.18,23.18,0,0,0,11.42,3.43q11.72,0,11.71-14.28a43.2,43.2,0,0,0-.29-5.71L364,290.36,467.66,189.3Q475.07,181.86,475.08,175.58ZM324.62,277.51l20.55,120.2L237.54,340.89,129.61,397.71l20.85-120.2-87.37-84.8L183.58,175,237.54,66l54,109.06L412,192.71Z"/></g></g></svg>