<svg xmlns="http://www.w3.org/2000/svg" viewBox="0 0 512 363.46"><title>tow-truck</title><g id="Слой_2" data-name="Слой 2"><g id="Capa_1" data-name="Capa 1"><path d="M476,156.59,435.7,115.84a15,15,0,0,0-10.6-4.43H362a14.92,14.92,0,0,0-14.89,14.9v69.61A14.91,14.91,0,0,0,362,210.81H465.35a14.92,14.92,0,0,0,14.9-14.89V167.06A14.8,14.8,0,0,0,476,156.59Zm-10.6,39.6H362a.27.27,0,0,1-.27-.27V126.31A.27.27,0,0,1,362,126H425.1a.27.27,0,0,1,.19.08l40.25,40.75a.26.26,0,0,1,.08.19v28.86h0A.27.27,0,0,1,465.35,196.19Z"/><path d="M373.05,219.72H354.43a7.32,7.32,0,0,0,0,14.63h18.62a7.32,7.32,0,0,0,0-14.63Z"/><path d="M273.1,171.64a22.54,22.54,0,1,0,22.54,22.54A22.56,22.56,0,0,0,273.1,171.64Zm0,30.45a7.92,7.92,0,1,1,7.92-7.91A7.92,7.92,0,0,1,273.1,202.09Z"/><path d="M504.59,141.08l-52.31-53A25.85,25.85,0,0,0,434,80.48h-94.2a24.48,24.48,0,0,0-24.45,24.45v67.13A48.1,48.1,0,0,0,225,195V237.3H153a45.27,45.27,0,0,0-40.87-26.13H70.73A45.27,45.27,0,0,0,29.85,237.3H14.51A14.53,14.53,0,0,0,0,251.81v46.73a27.8,27.8,0,0,0,.2,3.29.77.77,0,0,1,0,.15A20.11,20.11,0,0,0,20,319.12h15.3a57.08,57.08,0,0,0,111.28,0H362.83a57.08,57.08,0,0,0,111.28,0h6.1a31.94,31.94,0,0,0,22.27-9A30.62,30.62,0,0,0,512,287.94V159.12A25.49,25.49,0,0,0,504.59,141.08Zm-265,54a33.49,33.49,0,1,1,67,0V237.3h-67V195ZM133.17,311a42.46,42.46,0,0,1-84.42,0,43.48,43.48,0,0,1-.26-4.65,42.47,42.47,0,0,1,84.94,0A43.22,43.22,0,0,1,133.17,311ZM148,304.5c0-.18,0-.36,0-.53,0-.48-.05-1-.08-1.42s-.06-1-.11-1.46-.09-.93-.15-1.4-.11-1-.18-1.44-.14-.91-.22-1.36-.16-1-.25-1.43-.18-.9-.28-1.34-.21-.94-.33-1.41-.22-.87-.34-1.31-.26-.92-.4-1.38-.26-.86-.39-1.28-.31-.91-.47-1.37l-.45-1.24c-.17-.45-.35-.9-.53-1.34s-.34-.81-.52-1.21-.39-.88-.59-1.31-.37-.79-.57-1.18-.43-.85-.65-1.28l-.62-1.14c-.23-.42-.47-.83-.72-1.25l-.66-1.1-.78-1.21c-.24-.36-.47-.72-.72-1.07s-.55-.79-.83-1.17-.51-.69-.76-1l-.9-1.14c-.26-.33-.53-.66-.8-1s-.63-.74-.95-1.1l-.84-.94c-.33-.36-.67-.7-1-1.05s-.59-.61-.89-.9l-1-1-.93-.86c-.36-.33-.73-.64-1.1-1l-1-.81-1.15-.9c-.33-.26-.66-.52-1-.77l-1.19-.84c-.35-.24-.69-.49-1-.72l-1.23-.79c-.36-.23-.71-.46-1.07-.67s-.85-.5-1.28-.74-.73-.42-1.1-.61-.87-.46-1.31-.68l-1.13-.56c-.45-.22-.91-.42-1.36-.62s-.76-.35-1.15-.51l-1.4-.55-1.17-.45c-.48-.18-1-.33-1.44-.49l-1.19-.4c-.49-.15-1-.28-1.48-.42s-.8-.23-1.21-.33-1-.24-1.53-.36l-1.2-.27c-.53-.11-1.07-.2-1.61-.29l-1.17-.21c-.57-.08-1.14-.14-1.72-.21-.37-.05-.74-.11-1.11-.14-.64-.07-1.28-.11-1.92-.15l-1-.07c-1,0-1.93-.07-2.91-.07s-1.94,0-2.9.07l-1,.07c-.64.05-1.28.08-1.91.15l-1.12.14c-.57.07-1.14.13-1.71.22-.4.06-.79.14-1.19.21s-1.06.17-1.59.28-.81.18-1.22.28-1,.22-1.51.35-.82.22-1.23.34l-1.46.41-1.21.41c-.47.15-1,.31-1.41.48s-.81.3-1.21.46-.91.35-1.36.54l-1.19.52-1.32.6-1.16.59-1.29.65-1.13.64c-.42.24-.83.47-1.24.72s-.74.46-1.1.69-.81.5-1.2.77l-1.08.74-1.15.82-1,.8q-.56.42-1.11.87l-1,.84-1.06.92c-.33.29-.64.59-1,.89l-1,1c-.31.31-.62.62-.92.94s-.65.67-1,1-.59.65-.89,1-.61.7-.91,1.06-.56.68-.84,1l-.85,1.08-.8,1.08-.8,1.12-.75,1.12c-.25.39-.5.77-.74,1.16s-.47.77-.7,1.16l-.69,1.19c-.22.4-.43.8-.64,1.2s-.43.81-.63,1.22-.4.82-.59,1.24-.39.83-.57,1.24l-.54,1.28c-.17.42-.34.85-.5,1.27s-.33.87-.48,1.31-.3.86-.44,1.3-.29.89-.42,1.34-.26.88-.38,1.32l-.36,1.38c-.11.44-.21.89-.31,1.33s-.2.94-.29,1.41-.17.9-.24,1.36-.16.95-.23,1.44-.12.91-.17,1.36-.12,1-.16,1.47S34,302,34,302.5s-.06,1-.08,1.5l0,.5H20A5.41,5.41,0,0,1,14.71,300a11.27,11.27,0,0,1-.08-1.42V251.93H34.69a7.33,7.33,0,0,0,6.71-4.41l.7-1.63a3.45,3.45,0,0,0,.14-.34A30.58,30.58,0,0,1,70.73,225.8h41.44a30.55,30.55,0,0,1,28.48,19.75c0,.12.09.23.14.34l.7,1.63a7.33,7.33,0,0,0,6.71,4.41H315.36V304.5ZM460.68,311a42.46,42.46,0,0,1-84.42,0,43.22,43.22,0,0,1-.26-4.62,42.47,42.47,0,1,1,84.94,0A43.77,43.77,0,0,1,460.68,311Zm36.7-23.08h0c0,9-7.86,16.56-17.16,16.56h-4.67c0-.18,0-.36,0-.53,0-.48-.05-1-.08-1.42s-.07-1-.11-1.46l-.15-1.4c-.06-.48-.12-1-.19-1.44s-.14-.91-.21-1.36-.17-1-.26-1.43-.18-.9-.28-1.34-.21-.94-.32-1.41-.23-.87-.34-1.31-.26-.92-.4-1.38-.26-.86-.4-1.28-.3-.91-.46-1.37-.3-.83-.46-1.24-.34-.9-.53-1.34-.33-.81-.51-1.21-.39-.88-.59-1.31l-.57-1.18c-.21-.43-.43-.85-.66-1.28s-.4-.76-.61-1.14l-.72-1.25-.67-1.1c-.25-.41-.51-.81-.78-1.21s-.47-.72-.71-1.07-.55-.79-.84-1.17-.5-.69-.76-1-.59-.76-.89-1.14-.53-.66-.8-1-.63-.74-.95-1.1-.56-.63-.85-.94-.66-.7-1-1.05-.58-.61-.88-.9l-1.06-1-.92-.86c-.36-.33-.73-.64-1.1-1l-1-.81-1.15-.9-1-.77-1.19-.84c-.35-.24-.69-.49-1-.72l-1.24-.79c-.35-.23-.7-.46-1.06-.67s-.85-.5-1.28-.74-.73-.42-1.1-.61-.87-.46-1.32-.68l-1.12-.56c-.45-.22-.91-.42-1.36-.62s-.76-.35-1.15-.51l-1.4-.55-1.17-.45c-.48-.18-1-.33-1.44-.49l-1.19-.4c-.49-.15-1-.28-1.48-.42s-.8-.23-1.21-.33-1-.24-1.53-.36l-1.2-.27c-.53-.11-1.07-.2-1.61-.29-.39-.07-.78-.15-1.17-.21-.57-.08-1.14-.14-1.72-.21-.37-.05-.74-.11-1.11-.14-.64-.07-1.28-.11-1.92-.15l-.95-.07c-1,0-1.93-.07-2.91-.07s-1.94,0-2.9.07l-.95.07c-.64,0-1.28.08-1.92.15l-1.11.14c-.58.07-1.15.13-1.72.21l-1.17.21c-.54.09-1.08.18-1.61.29l-1.2.27c-.51.12-1,.23-1.53.36s-.81.22-1.21.33-1,.27-1.48.42l-1.19.4c-.48.16-1,.31-1.44.49l-1.17.45-1.4.55c-.39.16-.77.34-1.15.51s-.91.4-1.36.62l-1.13.56c-.44.22-.88.44-1.31.68l-1.1.61-1.28.74c-.36.21-.71.44-1.07.67l-1.23.79c-.35.23-.69.48-1,.72s-.8.56-1.19.85l-1,.76-1.15.9-1,.81-1.1,1-.92.86-1.06,1-.88.9-1,1.05-.84.94c-.32.37-.64.73-.95,1.1s-.54.65-.8,1l-.9,1.14c-.25.34-.51.68-.76,1l-.83,1.17c-.25.35-.48.71-.72,1.07l-.78,1.21-.66,1.1c-.25.42-.49.83-.72,1.25l-.62,1.14c-.22.43-.44.85-.65,1.29s-.38.78-.57,1.17-.4.87-.59,1.31-.35.81-.51,1.21-.36.89-.53,1.34-.31.83-.46,1.24-.31.91-.46,1.37-.27.85-.4,1.28-.27.92-.4,1.38-.23.87-.34,1.31-.22.94-.32,1.41-.19.89-.28,1.34-.18,1-.26,1.43-.15.9-.21,1.36-.13,1-.19,1.44l-.15,1.4c0,.48-.08,1-.11,1.46s-.06.94-.08,1.42c0,.17,0,.35,0,.53H330V104.93a9.84,9.84,0,0,1,9.82-9.82H434a11.1,11.1,0,0,1,7.86,3.29l52.32,52.95a11,11,0,0,1,3.19,7.77V287.94Z"/><path d="M418.47,276.11a30.26,30.26,0,1,0,30.26,30.26A30.29,30.29,0,0,0,418.47,276.11Zm0,45.89a15.63,15.63,0,1,1,15.64-15.63A15.65,15.65,0,0,1,418.47,322Z"/><path d="M112.36,285a30.25,30.25,0,1,0,0,42.79A30.31,30.31,0,0,0,112.36,285ZM102,317.42a15.63,15.63,0,1,1,0-22.11A15.64,15.64,0,0,1,102,317.42Z"/><path d="M298.48,257.84H162.89a14.61,14.61,0,0,0-14.6,14.59V286a14.61,14.61,0,0,0,14.6,14.59h19.35a7.31,7.31,0,0,0,0-14.62l-19.32,0,0-13.52,135.56,0,0,13.52H231.42a7.31,7.31,0,1,0,0,14.62h67.07A14.6,14.6,0,0,0,313.08,286V272.43A14.62,14.62,0,0,0,298.48,257.84Z"/><path d="M268.6,130.7,113.14,6a28.29,28.29,0,0,0-38,41.71l.07.07,8.45,8.67v75.14c0,.13-.05.2,0,.2A30.69,30.69,0,0,0,89,192.24c.67,0,1.32.06,2,.06A30.36,30.36,0,0,0,112,184a30.81,30.81,0,0,0,9.68-22.37,7.32,7.32,0,0,0-14.63,0,16.05,16.05,0,0,1-17.1,16,16.23,16.23,0,0,1-15-15A16.06,16.06,0,0,1,87.11,146a14.72,14.72,0,0,0,11.16-14.4V71.47L210.19,186.28a7.31,7.31,0,0,0,10.47-10.21L85.71,37.63a13.69,13.69,0,0,1-.13-18.53,13.66,13.66,0,0,1,18.47-1.61l155.4,124.62a7.31,7.31,0,1,0,9.15-11.41Z"/></g></g></svg>